<?xml version="1.0" standalone="no"?>
<!DOCTYPE svg PUBLIC "-//W3C//DTD SVG 20010904//EN"
 "http://www.w3.org/TR/2001/REC-SVG-20010904/DTD/svg10.dtd">
<svg version="1.0" xmlns="http://www.w3.org/2000/svg"
 width="348.000000pt" height="453.000000pt" viewBox="0 0 348.000000 453.000000"
 preserveAspectRatio="xMidYMid meet">

<g transform="translate(0.000000,453.000000) scale(0.100000,-0.100000)"
fill="#000000" stroke="none">
<path d="M2205 4245 c-234 -65 -373 -123 -640 -267 -278 -151 -437 -272 -598
-456 -169 -194 -213 -264 -273 -430 -116 -319 -62 -611 142 -774 84 -66 117
-88 213 -134 41 -20 81 -43 89 -50 7 -8 22 -14 32 -14 26 0 70 -21 70 -33 0
-6 -27 -36 -59 -66 -120 -114 -146 -150 -161 -230 -24 -128 13 -241 146 -452
102 -161 99 -197 -19 -220 -52 -11 -56 -14 -51 -35 3 -13 1 -38 -5 -57 -11
-34 -73 -101 -101 -109 -8 -3 8 -10 37 -17 52 -13 52 -13 45 -44 -14 -61 -6
-180 16 -235 18 -46 19 -59 9 -116 -16 -93 2 -255 43 -394 l33 -113 96 3 95 3
21 55 c20 51 184 333 207 355 15 15 75 -59 132 -161 34 -64 53 -112 65 -172
l16 -82 290 2 289 3 24 75 c51 156 40 340 -30 522 l-29 78 98 117 c135 161
199 257 247 370 l23 55 20 -33 c11 -19 40 -72 64 -119 l44 -85 -3 -135 c-3
-154 9 -214 58 -292 16 -27 30 -53 30 -58 0 -5 -24 -22 -53 -39 -61 -35 -147
-107 -147 -124 0 -6 17 5 38 25 35 33 154 118 167 118 3 0 14 -14 25 -32 l19
-32 -76 -28 c-88 -32 -100 -34 -83 -13 15 18 1 19 -22 1 -22 -17 -23 -36 -2
-36 33 0 201 63 276 102 42 23 93 57 112 75 l35 34 6 -38 c22 -145 77 -342
126 -450 45 -101 45 -69 -1 48 -45 115 -71 208 -95 344 -9 50 -20 99 -25 110
-5 11 -16 60 -25 108 -19 108 -53 205 -111 317 -39 77 -48 109 -94 337 -27
139 -50 272 -50 296 0 28 9 60 24 88 51 91 130 340 178 559 20 94 23 131 23
355 0 269 -6 320 -56 514 -54 207 -133 378 -240 523 -57 77 -167 182 -302 291
-152 122 -236 227 -237 294 0 12 -3 24 -7 26 -5 3 -62 -10 -128 -28z m-10
-659 c25 -51 30 -72 33 -157 l4 -99 -28 6 c-43 8 -105 -39 -194 -146 -54 -66
-80 -90 -92 -86 -23 5 -23 5 8 -57 26 -50 27 -51 41 -30 13 19 21 20 73 16 73
-7 130 12 185 62 21 20 39 34 40 33 1 -2 11 -23 23 -48 12 -25 42 -69 68 -98
44 -50 45 -53 34 -87 -17 -51 -100 -173 -157 -230 -27 -28 -91 -79 -142 -114
l-93 -63 -45 17 c-45 17 -171 107 -263 188 -105 91 -182 256 -151 324 l12 26
22 -20 c37 -34 66 -45 125 -46 l57 -2 13 -45 12 -45 -5 50 c-3 27 -19 78 -35
113 -20 43 -28 73 -25 95 l5 32 -15 -31 -14 -32 -35 17 c-20 9 -35 21 -36 27
0 21 169 244 220 289 l23 20 -6 -25 c-23 -87 -14 -350 11 -350 4 0 8 21 10 48
4 68 30 167 63 240 48 107 183 279 211 270 7 -3 26 -31 43 -62z m29 -294 c2
-4 7 -23 11 -42 l6 -35 -68 -17 c-37 -9 -76 -19 -85 -23 -32 -13 -19 12 35 69
49 52 87 70 101 48z m32 -124 c5 -17 -2 -30 -38 -64 -60 -56 -150 -79 -213
-55 -18 7 -18 10 13 40 30 31 33 31 54 17 12 -9 33 -16 47 -16 38 0 91 38 98
71 7 34 29 38 39 7z m-648 -108 c15 -33 72 -56 102 -40 19 10 30 4 30 -17 0
-21 -78 -16 -128 8 -46 23 -58 39 -48 64 9 24 30 17 44 -15z m701 -472 c1 -30
-5 -41 -31 -61 -51 -38 -94 -57 -131 -57 -66 0 -76 44 -19 83 20 14 66 53 102
85 l65 60 7 -37 c4 -20 7 -53 7 -73z m73 -166 c63 -16 -67 -184 -199 -258 -35
-20 -67 -33 -71 -29 -10 10 -15 187 -7 260 6 60 7 61 33 57 34 -5 133 32 157
58 17 19 18 18 43 -32 14 -28 33 -53 44 -56z m-312 -26 c0 -2 -7 -7 -16 -10
-8 -3 -12 -2 -9 4 6 10 25 14 25 6z m442 -41 c50 -25 101 -45 114 -45 33 0
105 -30 132 -56 l24 -21 -46 -39 c-58 -49 -110 -126 -136 -204 -20 -60 -49
-225 -50 -285 -1 -27 -3 -24 -25 25 -13 30 -24 63 -25 73 0 9 -4 17 -9 17 -13
0 -37 87 -56 200 -17 106 -32 380 -21 380 4 0 48 -20 98 -45z m-435 -52 c-3
-5 -1 -53 5 -107 9 -90 15 -110 60 -199 42 -85 62 -112 136 -184 48 -46 97
-86 110 -89 19 -5 22 -13 22 -53 0 -67 -25 -172 -57 -244 -32 -71 -117 -190
-189 -263 -27 -28 -83 -87 -124 -133 -74 -81 -76 -82 -115 -78 l-40 5 35 -16
c52 -22 200 -20 272 5 l56 19 7 -60 c3 -34 8 -73 11 -87 6 -30 -5 -36 -122
-69 -108 -31 -240 -24 -311 14 -108 59 -204 176 -239 292 l-13 43 55 20 c167
63 227 124 210 215 -7 34 -22 48 -98 91 -142 78 -208 174 -207 300 0 111 12
132 100 185 42 25 105 66 140 91 80 58 243 226 266 273 9 20 21 36 25 36 5 0
7 -3 5 -7z m-360 -64 c3 -52 31 -130 59 -160 12 -14 13 -22 4 -38 -6 -12 -13
-21 -16 -21 -3 0 -2 6 2 13 9 13 -26 -12 -38 -28 -10 -14 -16 -5 -44 76 -31
87 -29 142 6 182 13 15 24 27 24 27 1 0 2 -23 3 -51z m922 -833 c-1 -15 -28
46 -28 64 0 8 6 0 14 -19 8 -18 15 -38 14 -45z m-819 -144 c0 -21 -63 -62
-140 -92 -47 -18 -89 -37 -94 -42 -16 -13 -26 -9 -26 9 0 9 -12 29 -27 45
l-26 27 29 11 c95 37 284 64 284 42z m-208 -300 c22 -45 51 -81 101 -127 39
-36 75 -65 79 -65 4 0 -21 -38 -57 -85 -35 -46 -80 -112 -101 -145 -20 -33
-41 -60 -45 -60 -16 0 -76 134 -97 215 -11 45 -23 117 -27 160 -3 44 -8 98
-10 120 -3 29 -2 35 5 20 8 -18 9 -17 9 8 1 22 11 34 49 58 l47 30 8 -33 c4
-18 22 -61 39 -96z m-356 -74 c-39 -45 -58 -77 -114 -198 l-12 -25 6 25 c4 14
19 52 33 85 15 33 28 63 30 67 2 8 93 97 99 98 2 0 -17 -23 -42 -52z m-83 -25
c-7 -2 -19 -2 -25 0 -7 3 -2 5 12 5 14 0 19 -2 13 -5z m1017 -317 c0 -2 -8
-10 -17 -17 -16 -13 -17 -12 -4 4 13 16 21 21 21 13z m-60 -50 c0 -2 -8 -10
-17 -17 -16 -13 -17 -12 -4 4 13 16 21 21 21 13z"/>
<path d="M1753 2829 l-22 -49 22 -15 c29 -20 60 -20 33 0 -10 8 -23 16 -29 18
-5 1 -3 17 7 36 10 18 16 38 14 46 -2 7 -13 -9 -25 -36z"/>
<path d="M1838 2698 c-13 -11 -32 -58 -23 -58 1 0 20 7 41 16 46 19 106 13
165 -17 57 -28 47 -3 -15 39 -39 26 -58 32 -100 32 -29 0 -59 -6 -68 -12z"/>
<path d="M1896 2611 c-3 -4 8 -8 24 -7 17 1 30 4 30 9 0 10 -48 9 -54 -2z"/>
<path d="M2140 2404 c-25 -64 -6 -124 40 -124 34 0 45 23 35 73 -15 72 -57
100 -75 51z"/>
<path d="M1680 1103 c0 -14 90 -103 104 -103 5 0 -9 16 -32 36 -23 19 -49 45
-57 57 -8 12 -15 16 -15 10z"/>
<path d="M1766 924 c-23 -23 -20 -33 23 -75 40 -37 132 -79 174 -79 57 1 75
58 32 104 -54 58 -191 88 -229 50z"/>
<path d="M414 1866 c-9 -23 0 -51 16 -51 10 0 15 10 15 29 0 32 -21 47 -31 22z"/>
<path d="M553 1754 c-3 -8 -1 -20 5 -26 16 -16 42 -2 42 22 0 24 -38 28 -47 4z"/>
<path d="M427 1733 c-12 -11 -8 -23 8 -23 8 0 15 7 15 15 0 16 -12 20 -23 8z"/>
<path d="M486 1633 c-11 -11 -6 -23 9 -23 8 0 15 4 15 9 0 13 -16 22 -24 14z"/>
<path d="M439 1440 c-77 -39 -88 -52 -105 -123 -5 -22 3 -44 39 -106 54 -93
67 -131 44 -131 -21 0 -30 -17 -29 -53 1 -37 17 -56 34 -39 8 8 17 8 37 -3 14
-8 44 -21 66 -29 22 -7 79 -28 127 -45 102 -36 110 -37 203 -15 87 21 117 34
111 50 -3 7 2 10 13 7 11 -3 21 2 24 11 4 10 1 16 -9 16 -9 0 -12 -5 -8 -12 5
-9 2 -9 -9 1 -22 17 -22 16 13 19 18 1 30 -3 30 -9 0 -7 9 -2 20 11 23 26 22
23 25 73 3 43 -11 53 -76 56 -28 2 -99 128 -118 210 -14 61 -23 78 -42 88
-115 57 -135 59 -145 17 -6 -24 10 -54 28 -54 6 0 23 -9 39 -21 27 -19 30 -26
27 -68 l-3 -46 -45 -6 c-25 -4 -52 -3 -61 2 -9 5 -48 5 -85 0 -74 -9 -84 -4
-77 33 7 33 43 47 86 34 52 -16 87 -4 86 30 0 15 -3 21 -6 15 -3 -9 -21 -4
-61 16 -31 15 -62 26 -69 24 -8 -3 -7 6 3 27 13 24 13 34 4 45 -17 21 -25 19
-111 -25z m196 -280 c-3 -5 -14 -10 -23 -9 -14 0 -13 2 3 9 27 11 27 11 20 0z
m421 -99 c-3 -46 -23 -76 -41 -61 -6 5 -16 6 -20 2 -5 -4 -5 -1 -1 5 4 7 9 23
11 34 3 12 7 24 11 28 3 3 4 -2 2 -11 -1 -9 2 -17 7 -17 6 -1 10 13 9 29 0 17
5 30 12 30 8 0 11 -14 10 -39z m-182 10 c4 -5 -3 -7 -14 -4 -23 6 -26 13 -6
13 8 0 17 -4 20 -9z"/>
<path d="M1033 1024 c-5 -13 -7 -13 -14 -2 -6 9 -9 9 -9 1 0 -22 19 -24 30 -3
6 11 8 20 5 20 -3 0 -8 -7 -12 -16z"/>
<path d="M254 1396 c-9 -36 -1 -71 16 -71 16 0 36 56 27 79 -10 24 -36 19 -43
-8z"/>
<path d="M930 1392 c0 -34 7 -43 26 -35 8 3 14 18 14 34 0 22 -5 29 -20 29
-15 0 -20 -7 -20 -28z"/>
<path d="M294 1276 c-8 -21 3 -49 16 -41 5 3 10 15 10 25 0 25 -18 36 -26 16z"/>
<path d="M312 1204 c4 -21 22 -23 26 -1 2 10 -3 17 -13 17 -10 0 -15 -6 -13
-16z"/>
<path d="M430 960 c0 -19 11 -26 23 -14 8 8 -3 34 -14 34 -5 0 -9 -9 -9 -20z"/>
<path d="M2750 325 c0 -4 47 -55 104 -114 58 -58 123 -130 146 -159 24 -29 45
-51 47 -48 8 7 -16 38 -130 166 -96 106 -167 173 -167 155z"/>
</g>
</svg>
